<svg width="48" height="49" viewBox="0 0 48 49" fill="none" xmlns="http://www.w3.org/2000/svg">
<path d="M24.0546 0L23.9453 0C10.7207 0 0 10.7239 0 23.9524L0 24.0617C0 37.2903 10.7207 48.0141 23.9453 48.0141H24.0546C37.2793 48.0141 48 37.2903 48 24.0617V23.9524C48 10.7239 37.2793 0 24.0546 0Z" fill="#383D38"/>
<path d="M36.0114 12.9846C33.8017 11.9703 31.4339 11.2234 28.9568 10.7961C28.9114 10.7877 28.8659 10.8079 28.8441 10.85C28.5397 11.3916 28.2017 12.0998 27.9662 12.6549C25.3025 12.2562 22.6522 12.2562 20.0422 12.6549C19.8051 12.0863 19.4553 11.3916 19.1492 10.85C19.1257 10.8096 19.0803 10.7894 19.0366 10.7961C16.5612 11.2234 14.1917 11.9703 11.982 12.9846C11.9635 12.993 11.9467 13.0065 11.9349 13.025C7.44145 19.7402 6.21043 26.2906 6.81415 32.7602C6.81751 32.7922 6.83433 32.8224 6.85956 32.841C9.82435 35.0194 12.6967 36.3415 15.5152 37.218C15.5606 37.2314 15.6077 37.2146 15.6362 37.1776C16.3022 36.2675 16.8975 35.307 17.4071 34.296C17.4373 34.2372 17.407 34.1665 17.3465 34.1429C16.4031 33.7846 15.5067 33.349 14.6423 32.8544C14.5734 32.814 14.5684 32.7165 14.6306 32.6694C14.8122 32.5331 14.9938 32.3918 15.1671 32.2488C15.199 32.2219 15.2427 32.2169 15.2797 32.2337C20.952 34.8242 27.0935 34.8242 32.6985 32.2337C32.7355 32.2152 32.7792 32.2219 32.8112 32.2472C32.9844 32.3901 33.166 32.5331 33.3493 32.6694C33.4115 32.7165 33.4082 32.814 33.3392 32.8544C32.4765 33.3591 31.5785 33.7863 30.6334 34.1429C30.5712 34.1665 30.5443 34.2372 30.5745 34.2977C31.0958 35.3053 31.6895 36.2659 32.3436 37.1776C32.3706 37.2163 32.4193 37.2331 32.4647 37.2196C35.2967 36.3432 38.169 35.021 41.1338 32.8426C41.159 32.8241 41.1758 32.7938 41.1792 32.7636C41.9023 25.2846 39.9684 18.7881 36.0551 13.0284C36.045 13.0099 36.0299 12.9947 36.0097 12.9863L36.0114 12.9846ZM18.2512 28.8206C16.5426 28.8206 15.1368 27.2528 15.1368 25.3267C15.1368 23.4006 16.5174 21.8328 18.2512 21.8328C19.985 21.8328 21.3943 23.4158 21.3657 25.3267C21.3657 27.2528 19.985 28.8206 18.2512 28.8206ZM29.769 28.8206C28.0604 28.8206 26.6546 27.2528 26.6546 25.3267C26.6546 23.4006 28.0352 21.8328 29.769 21.8328C31.5028 21.8328 32.912 23.4158 32.8835 25.3267C32.8835 27.2528 31.5179 28.8206 29.769 28.8206Z" fill="white"/>
</svg>
