<svg width="48" height="48" viewBox="0 0 48 48" fill="none" xmlns="http://www.w3.org/2000/svg">
<path d="M24.0547 0L23.9453 0C10.7207 0 0 10.7207 0 23.9453L0 24.0547C0 37.2793 10.7207 48 23.9453 48H24.0547C37.2793 48 48 37.2793 48 24.0547V23.9453C48 10.7207 37.2793 0 24.0547 0Z" fill="#383D38"/>
<path d="M9.09113 23.1819C9.1584 23.1482 9.2257 23.1163 9.29128 23.086C10.4315 22.558 11.5868 22.0636 12.7404 21.5691C12.8026 21.5691 12.9069 21.4968 12.9657 21.4733C13.0548 21.4346 13.144 21.3976 13.2331 21.3589C13.4046 21.2849 13.5762 21.2126 13.746 21.1386C14.0891 20.9923 14.4305 20.846 14.7735 20.6997L16.8268 19.8202C18.1957 19.235 19.5663 18.6481 20.9352 18.0628C22.3041 17.4776 23.6746 16.8907 25.0435 16.3055C26.4124 15.7203 27.7829 15.1334 29.1518 14.5482C30.5207 13.9629 31.8913 13.376 33.2602 12.7908C33.5646 12.6596 33.8942 12.4646 34.2204 12.4074C34.4945 12.3586 34.7619 12.2644 35.0377 12.2123C35.5607 12.1131 36.1375 12.0727 36.6386 12.2897C36.8119 12.3653 36.9716 12.4713 37.1045 12.6041C37.7401 13.2331 37.651 14.2656 37.5165 15.1502C36.5798 21.3152 35.6431 27.4819 34.7047 33.6469C34.5769 34.4928 34.402 35.4211 33.7344 35.9559C33.1693 36.4082 32.3655 36.4587 31.6676 36.267C30.9697 36.0736 30.3542 35.6683 29.7505 35.2697C27.2465 33.6116 24.7408 31.9535 22.2368 30.2953C21.6415 29.9018 20.9789 29.3872 20.9856 28.6725C20.989 28.242 21.2463 27.8586 21.5086 27.5172C23.6847 24.6786 26.8244 22.7278 29.1602 20.0203C29.4898 19.6386 29.7488 18.9491 29.2965 18.7288C29.0274 18.5976 28.7179 18.7759 28.4724 18.9457C25.3849 21.0899 22.299 23.2357 19.2115 25.3798C18.2042 26.0794 17.1481 26.7991 15.9339 26.9707C14.8475 27.1254 13.7545 26.8227 12.7034 26.5133C11.8222 26.2543 10.9427 25.9886 10.0665 25.7145C9.60069 25.5698 9.11972 25.4134 8.75985 25.0855C8.39997 24.7576 8.19315 24.206 8.41009 23.7688C8.5463 23.4946 8.81033 23.3214 9.08781 23.1802L9.09113 23.1819Z" fill="#FEFFFC"/>
</svg>
