<svg width="48" height="49" viewBox="0 0 48 49" fill="none" xmlns="http://www.w3.org/2000/svg">
<path d="M48 24.0071C48 10.7483 37.2549 0 24 0C10.7452 0 0 10.7483 0 24.0071C0 37.2658 10.7452 48.0142 24 48.0142C37.2549 48.0142 48 37.2658 48 24.0071Z" fill="#383D38"/>
<path d="M39.1124 19.0322C38.9235 17.2086 38.5171 15.1927 37.0212 14.1333C35.8626 13.3118 34.3397 13.2814 32.918 13.2831C29.9128 13.2831 26.9058 13.2881 23.9005 13.2898C21.0099 13.2932 18.1193 13.2949 15.2287 13.2983C14.0212 13.2983 12.8475 13.2055 11.726 13.7284C10.763 14.1772 10.0092 15.0308 9.55549 15.9805C8.92644 17.3014 8.79491 18.7977 8.71902 20.2586C8.57904 22.919 8.59422 25.5861 8.76118 28.2447C8.88429 30.1847 9.19628 32.3288 10.6955 33.5654C12.0245 34.6602 13.8998 34.7142 15.6234 34.7159C21.0942 34.7209 26.5668 34.726 32.0394 34.7294C32.741 34.731 33.4729 34.7176 34.1879 34.64C35.5944 34.4881 36.9352 34.0849 37.8391 33.0424C38.7515 31.9914 38.9859 30.5288 39.1242 29.1438C39.4615 25.7834 39.4581 22.391 39.1124 19.0322ZM20.7367 28.7171V19.2954L28.8925 24.0054L20.7367 28.7171Z" fill="white"/>
</svg>
